<?xml version="1.0" encoding="utf-8"?>
<!-- Generator: Adobe Illustrator 18.0.0, SVG Export Plug-In . SVG Version: 6.00 Build 0)  -->
<!DOCTYPE svg PUBLIC "-//W3C//DTD SVG 1.1//EN" "http://www.w3.org/Graphics/SVG/1.1/DTD/svg11.dtd">
<svg version="1.1" id="OBJECTS" xmlns="http://www.w3.org/2000/svg" xmlns:xlink="http://www.w3.org/1999/xlink" x="0px" y="0px"
	 width="500px" height="367px" viewBox="0 0 500 367" enable-background="new 0 0 500 367" xml:space="preserve">
<g>
	<linearGradient id="SVGID_1_" gradientUnits="userSpaceOnUse" x1="58.9261" y1="84.2253" x2="454.9261" y2="347.2253">
		<stop  offset="0" style="stop-color:#9E7CFC"/>
		<stop  offset="1" style="stop-color:#4C75F3"/>
	</linearGradient>
	<path fill="url(#SVGID_1_)" d="M311.2,106.8c-30-15-52.2-78.1-141.3-78.1c-87.4,0-158.3,66.8-158.3,149.1S75,326.7,162.4,326.7
		c53.9,0,63.3-14.7,96.5-14.7c37.2,0,47.2,34.2,114.2,34.2c65.3,0,115.8-54.7,114-122.2C483.5,87,339.6,121,311.2,106.8z"/>
	<linearGradient id="SVGID_2_" gradientUnits="userSpaceOnUse" x1="160.8991" y1="-69.3157" x2="556.8991" y2="193.6843">
		<stop  offset="0" style="stop-color:#9E7CFC"/>
		<stop  offset="1" style="stop-color:#4C75F3"/>
	</linearGradient>
	<circle fill="url(#SVGID_2_)" cx="339.2" cy="49.1" r="36"/>
	<linearGradient id="SVGID_3_" gradientUnits="userSpaceOnUse" x1="-2.6253" y1="176.9035" x2="393.3747" y2="439.9035">
		<stop  offset="0" style="stop-color:#9E7CFC"/>
		<stop  offset="1" style="stop-color:#4C75F3"/>
	</linearGradient>
	<circle fill="url(#SVGID_3_)" cx="247.5" cy="343" r="14.9"/>
	<linearGradient id="SVGID_4_" gradientUnits="userSpaceOnUse" x1="169.1851" y1="-81.792" x2="565.1851" y2="181.208">
		<stop  offset="0" style="stop-color:#9E7CFC"/>
		<stop  offset="1" style="stop-color:#4C75F3"/>
	</linearGradient>
	<circle fill="url(#SVGID_4_)" cx="414.3" cy="81" r="14.9"/>
</g>
<path fill="#FFFFFF" d="M239.7,148.2c-31.9,0-57.8,25.9-57.8,57.8s25.9,57.8,57.8,57.8c31.9,0,57.8-25.9,57.8-57.8
	S271.6,148.2,239.7,148.2z M239.7,246.3c-22.3,0-40.3-18.1-40.3-40.3c0-22.3,18.1-40.3,40.3-40.3c22.3,0,40.3,18.1,40.3,40.3
	C280,228.3,261.9,246.3,239.7,246.3z"/>
<g>
	<g>
		<circle fill="#DDDDDD" cx="332.4" cy="204.6" r="3.7"/>
		<g>
			<path fill="#D1D1D1" d="M329.6,204.6c0-1.9,1.4-3.5,3.3-3.7c-0.1,0-0.3,0-0.4,0c-2.1,0-3.7,1.7-3.7,3.7c0,2.1,1.7,3.7,3.7,3.7
				c0.2,0,0.3,0,0.4,0C331,208.1,329.6,206.5,329.6,204.6z"/>
		</g>
	</g>
	<g>
		<circle fill="#DDDDDD" cx="368.7" cy="245" r="4.9"/>
		<g>
			<path fill="#D1D1D1" d="M365,245c0-2.5,1.9-4.5,4.3-4.8c-0.2,0-0.4,0-0.6,0c-2.7,0-4.9,2.2-4.9,4.9c0,2.7,2.2,4.9,4.9,4.9
				c0.2,0,0.4,0,0.6,0C366.8,249.5,365,247.5,365,245z"/>
		</g>
	</g>
	<path fill="#FFFFFF" d="M382.2,230.1h-4.6v-28.5c0-4.8-4.1-8.4-8.9-8.4c-5.1,0-8.9,3.6-8.9,8.4v28.5h-26.6
		c3.2-7.4,12.6-30.1,19.9-47.6c1.1-2.7,2.2-5.2,3.1-7.3c0,0,0,0,0,0c2.2-5.3,4-9.6,5.1-12.1c0.5-1.1,0.5-2.1,0.5-3
		c0-4.6-4.6-8.5-8.9-8.5c-3.3,0-6.6,2-7.9,5.1l-31.5,75.8c-1,1.8-1.5,4.4-1.5,5.1c0,4.8,3.8,9,9.2,9h38.5v16.6
		c0,4.8,3.8,8.4,8.9,8.4c4.9,0,8.9-3.6,8.9-8.4v-16.6h4.6c4.8,0,8.5-3.6,8.5-8.2C390.7,233.9,387,230.1,382.2,230.1z"/>
	<g>
		<circle fill="#DDDDDD" cx="345.2" cy="241.5" r="2.1"/>
		<g>
			<path fill="#D1D1D1" d="M343.6,241.5c0-1.1,0.8-1.9,1.8-2c-0.1,0-0.2,0-0.2,0c-1.1,0-2.1,0.9-2.1,2.1c0,1.1,0.9,2.1,2.1,2.1
				c0.1,0,0.2,0,0.2,0C344.4,243.4,343.6,242.6,343.6,241.5z"/>
		</g>
	</g>
	<g>
		<circle fill="#DDDDDD" cx="372.2" cy="260" r="2.1"/>
		<g>
			<path fill="#D1D1D1" d="M370.6,260c0-1.1,0.8-1.9,1.8-2c-0.1,0-0.2,0-0.2,0c-1.1,0-2.1,0.9-2.1,2.1c0,1.1,0.9,2.1,2.1,2.1
				c0.1,0,0.2,0,0.2,0C371.4,261.9,370.6,261,370.6,260z"/>
		</g>
	</g>
	<g>
		<circle fill="#DDDDDD" cx="371.7" cy="202.2" r="2.4"/>
		<g>
			<path fill="#D1D1D1" d="M369.8,202.2c0-1.2,0.9-2.2,2.1-2.4c-0.1,0-0.2,0-0.3,0c-1.3,0-2.4,1.1-2.4,2.4s1.1,2.4,2.4,2.4
				c0.1,0,0.2,0,0.3,0C370.7,204.4,369.8,203.4,369.8,202.2z"/>
		</g>
	</g>
	<g>
		<circle fill="#DDDDDD" cx="367" cy="220.3" r="3.2"/>
		<g>
			<path fill="#D1D1D1" d="M364.6,220.3c0-1.7,1.2-3,2.9-3.2c-0.1,0-0.3,0-0.4,0c-1.8,0-3.2,1.5-3.2,3.2c0,1.8,1.5,3.2,3.2,3.2
				c0.1,0,0.3,0,0.4,0C365.8,223.4,364.6,222,364.6,220.3z"/>
		</g>
	</g>
	<g>
		<path fill="#DDDDDD" d="M318.8,227.9c2.2-0.2,4-2.1,4-4.4c0-2.2-1.6-4-3.7-4.4l-3,7.3C316.8,227.3,317.8,227.8,318.8,227.9z"/>
		<path fill="#D1D1D1" d="M318.9,228C318.9,228,318.9,227.9,318.9,228c-0.2,0-0.4,0-0.5,0c-1,0-1.8-0.3-2.5-0.8v0
			c0.7,0.5,1.6,0.8,2.5,0.8C318.5,228,318.7,228,318.9,228z"/>
		<path fill="#D1D1D1" d="M316.1,226.5l-0.3,0.7c0.7,0.5,1.6,0.8,2.5,0.8c0.2,0,0.3,0,0.5,0C317.8,227.8,316.8,227.3,316.1,226.5z"
			/>
	</g>
	<g>
		<circle fill="#DDDDDD" cx="338.7" cy="191.2" r="4.4"/>
		<g>
			<path fill="#D1D1D1" d="M335.3,191.2c0-2.3,1.7-4.1,3.9-4.4c-0.2,0-0.3,0-0.5,0c-2.4,0-4.4,2-4.4,4.4c0,2.4,2,4.4,4.4,4.4
				c0.2,0,0.4,0,0.5,0C337,195.4,335.3,193.5,335.3,191.2z"/>
		</g>
	</g>
	<g>
		<circle fill="#DDDDDD" cx="347.8" cy="168" r="2.7"/>
		<g>
			<path fill="#D1D1D1" d="M345.7,168c0-1.4,1-2.5,2.4-2.7c-0.1,0-0.2,0-0.3,0c-1.5,0-2.7,1.2-2.7,2.7c0,1.5,1.2,2.7,2.7,2.7
				c0.1,0,0.2,0,0.3,0C346.8,170.5,345.7,169.4,345.7,168z"/>
		</g>
	</g>
</g>
<path fill="#FFFFFF" d="M247.9,186.2c0-4.6-3.7-8.3-8.3-8.3c-4.6,0-8.3,3.7-8.3,8.3l4.1,31.1c0,2.3,1.8,4.1,4.1,4.1s4.1-1.8,4.1-4.1
	L247.9,186.2z"/>
<circle fill="#FFFFFF" cx="239.7" cy="230.3" r="5.8"/>
<g>
	<g>
		<path fill="#FFFFFF" d="M155.6,263.1c0,4.8-3.9,8.4-8.9,8.4c-5.1,0-8.9-3.6-8.9-8.4v-16.6H99.4c-5.4,0-9.2-4.3-9.2-9
			c0-0.7,0.5-3.3,1.5-5.1l31.5-75.8c1.3-3.1,4.6-5.1,7.9-5.1c4.3,0,8.9,3.9,8.9,8.5c0,0.8,0,1.8-0.5,3c-4.8,11-23.3,56.1-28,67.1
			h26.6v-28.5c0-4.8,3.8-8.4,8.9-8.4c4.8,0,8.9,3.6,8.9,8.4v28.5h4.6c4.8,0,8.5,3.8,8.5,8.2c0,4.6-3.8,8.2-8.5,8.2h-4.6V263.1z"/>
	</g>
	<g>
		<circle fill="#DDDDDD" cx="98.8" cy="236" r="3.7"/>
		<g>
			<path fill="#D1D1D1" d="M96,236c0-1.9,1.4-3.5,3.3-3.7c-0.1,0-0.3,0-0.4,0c-2.1,0-3.7,1.7-3.7,3.7s1.7,3.7,3.7,3.7
				c0.2,0,0.3,0,0.4,0C97.4,239.5,96,237.9,96,236z"/>
		</g>
	</g>
	<g>
		<path fill="#DDDDDD" d="M210.7,241.7c3.1,4-1.5,8.5-5.5,5.5C202.2,243.2,206.7,238.7,210.7,241.7z"/>
		<g>
			<path fill="#D1D1D1" d="M205.1,244.4c0-1.9,1.4-3.5,3.3-3.7c-1.1-0.1-2.4,0.1-4.2,3.3c-0.3,2.3,1.5,4.2,3.7,4.2
				c0.2,0,0.3,0,0.4,0C206.6,247.9,205.1,246.4,205.1,244.4z"/>
		</g>
	</g>
	<g>
		<path fill="#DDDDDD" d="M244.9,184.9c0.4,2.5-1.8,4.7-4.3,4.3c-1.6-0.2-2.9-1.5-3.1-3.1c-0.4-2.5,1.8-4.7,4.3-4.3
			C243.4,182.1,244.7,183.4,244.9,184.9z"/>
		<g>
			<path fill="#D1D1D1" d="M238.4,185.5c0-1.9,1.4-3.5,3.3-3.7c-2.1-0.2-3.8,1.1-4.2,3.3c-0.3,2.3,1.5,4.2,3.7,4.2
				c0.2,0,0.3,0,0.4,0C239.8,189,238.4,187.4,238.4,185.5z"/>
		</g>
	</g>
	<g>
		<circle fill="#DDDDDD" cx="147.6" cy="224.3" r="4.9"/>
		<g>
			<path fill="#D1D1D1" d="M143.9,224.3c0-2.5,1.9-4.5,4.3-4.8c-0.2,0-0.4,0-0.6,0c-2.7,0-4.9,2.2-4.9,4.9s2.2,4.9,4.9,4.9
				c0.2,0,0.4,0,0.6,0C145.7,228.9,143.9,226.8,143.9,224.3z"/>
		</g>
	</g>
	<g>
		<circle fill="#DDDDDD" cx="258" cy="160.5" r="5.8"/>
		<g>
			<path fill="#D1D1D1" d="M253.5,160.5c0-3,2.2-5.4,5.1-5.8c-0.2,0-0.5,0-0.7,0c-3.2,0-5.8,2.6-5.8,5.8c0,3.2,2.6,5.8,5.8,5.8
				c0.2,0,0.5,0,0.7,0C255.8,165.9,253.5,163.5,253.5,160.5z"/>
		</g>
	</g>
	<g>
		<circle fill="#DDDDDD" cx="194" cy="196.8" r="4.9"/>
		<g>
			<path fill="#D1D1D1" d="M190.3,196.8c0-2.5,1.9-4.5,4.3-4.8c-0.2,0-0.4,0-0.6,0c-2.7,0-4.9,2.2-4.9,4.9c0,2.7,2.2,4.9,4.9,4.9
				c0.2,0,0.4,0,0.6,0C192.2,201.4,190.3,199.3,190.3,196.8z"/>
		</g>
	</g>
	<g>
		<path fill="#DDDDDD" d="M130.7,173.5c-3.1,0.4-5.5,3-5.5,6.2c0,2.9,2,5.3,4.7,6c1.6-3.9,3.1-7.5,4.4-10.4
			c-1.1-1.1-2.6-1.8-4.3-1.8C130.2,173.4,130.5,173.4,130.7,173.5z"/>
		<path fill="#D1D1D1" d="M125.6,175.2c0.3-0.3,0.6-0.5,0.9-0.8C126.2,174.7,125.9,174.9,125.6,175.2z"/>
		<path fill="#D1D1D1" d="M124.5,176.7c0.3-0.5,0.6-1,1.1-1.4C125.2,175.7,124.8,176.1,124.5,176.7z"/>
		<path fill="#D1D1D1" d="M124,177.8c0.1-0.4,0.3-0.8,0.5-1.1C124.3,177,124.2,177.4,124,177.8z"/>
		<path fill="#D1D1D1" d="M130,173.4C130,173.4,130,173.4,130,173.4c-1.3,0-2.5,0.4-3.5,1.1C127.5,173.8,128.7,173.4,130,173.4
			C130,173.4,130,173.4,130,173.4z"/>
		<path fill="#D1D1D1" d="M123.8,180.2c0.3,3.1,2.9,5.5,6,5.6h0C126.7,185.7,124.1,183.3,123.8,180.2z"/>
		<path fill="#D1D1D1" d="M129.8,185.8c0-0.1,0.1-0.1,0.1-0.2c-2.7-0.7-4.7-3.1-4.7-6c0-3.2,2.4-5.8,5.5-6.2c-0.2,0-0.5,0-0.7,0
			c0,0,0,0,0,0c-1.3,0-2.5,0.4-3.5,1.1c-0.3,0.2-0.6,0.5-0.9,0.8c-0.4,0.4-0.8,0.9-1.1,1.4c-0.2,0.4-0.3,0.7-0.5,1.1
			c-0.2,0.6-0.3,1.2-0.3,1.8c0,0.2,0,0.4,0,0.6C124.1,183.3,126.7,185.7,129.8,185.8z"/>
	</g>
	<g>
		<circle fill="#DDDDDD" cx="124.1" cy="242.9" r="2.1"/>
		<g>
			<path fill="#D1D1D1" d="M122.5,242.9c0-1.1,0.8-1.9,1.8-2c-0.1,0-0.2,0-0.2,0c-1.1,0-2.1,0.9-2.1,2.1s0.9,2.1,2.1,2.1
				c0.1,0,0.2,0,0.2,0C123.3,244.8,122.5,244,122.5,242.9z"/>
		</g>
	</g>
	<g>
		<circle fill="#DDDDDD" cx="292.2" cy="215.4" r="2.1"/>
		<g>
			<path fill="#D1D1D1" d="M290.6,215.4c0-1.1,0.8-1.9,1.8-2c-0.1,0-0.2,0-0.2,0c-1.1,0-2.1,0.9-2.1,2.1c0,1.1,0.9,2.1,2.1,2.1
				c0.1,0,0.2,0,0.2,0C291.4,217.3,290.6,216.4,290.6,215.4z"/>
		</g>
	</g>
	<g>
		<circle fill="#DDDDDD" cx="248.3" cy="248.1" r="2.1"/>
		<g>
			<path fill="#D1D1D1" d="M246.7,248.1c0-1.1,0.8-1.9,1.8-2c-0.1,0-0.2,0-0.2,0c-1.1,0-2.1,0.9-2.1,2.1s0.9,2.1,2.1,2.1
				c0.1,0,0.2,0,0.2,0C247.5,250,246.7,249.1,246.7,248.1z"/>
		</g>
	</g>
	<g>
		<circle fill="#DDDDDD" cx="241.7" cy="211.1" r="2.1"/>
		<g>
			<path fill="#D1D1D1" d="M240.2,211.1c0-1.1,0.8-1.9,1.8-2c-0.1,0-0.2,0-0.2,0c-1.1,0-2.1,0.9-2.1,2.1s0.9,2.1,2.1,2.1
				c0.1,0,0.2,0,0.2,0C241,213.1,240.2,212.2,240.2,211.1z"/>
		</g>
	</g>
	<g>
		<circle fill="#DDDDDD" cx="218.4" cy="167.9" r="2.1"/>
		<g>
			<path fill="#D1D1D1" d="M216.9,167.9c0-1.1,0.8-1.9,1.8-2c-0.1,0-0.2,0-0.2,0c-1.1,0-2.1,0.9-2.1,2.1c0,1.1,0.9,2.1,2.1,2.1
				c0.1,0,0.2,0,0.2,0C217.7,169.9,216.9,169,216.9,167.9z"/>
		</g>
	</g>
	<g>
		<path fill="#DDDDDD" d="M232.6,195.1c2.1-0.3,4,1.2,4.3,3.3s-1.2,4-3.3,4.3"/>
	</g>
	<g>
		<circle fill="#DDDDDD" cx="152.4" cy="260" r="2.1"/>
		<g>
			<path fill="#D1D1D1" d="M150.9,260c0-1.1,0.8-1.9,1.8-2c-0.1,0-0.2,0-0.2,0c-1.1,0-2.1,0.9-2.1,2.1s0.9,2.1,2.1,2.1
				c0.1,0,0.2,0,0.2,0C151.7,261.9,150.9,261.1,150.9,260z"/>
		</g>
	</g>
	<g>
		<circle fill="#DDDDDD" cx="114.2" cy="193.1" r="2.1"/>
		<g>
			<path fill="#D1D1D1" d="M112.6,193.1c0-1.1,0.8-1.9,1.8-2c-0.1,0-0.2,0-0.2,0c-1.1,0-2.1,0.9-2.1,2.1c0,1.1,0.9,2.1,2.1,2.1
				c0.1,0,0.2,0,0.2,0C113.4,195,112.6,194.1,112.6,193.1z"/>
		</g>
	</g>
</g>
</svg>
