<?xml version="1.0" encoding="utf-8"?>
<!-- Generator: Adobe Illustrator 18.0.0, SVG Export Plug-In . SVG Version: 6.00 Build 0)  -->
<!DOCTYPE svg PUBLIC "-//W3C//DTD SVG 1.1//EN" "http://www.w3.org/Graphics/SVG/1.1/DTD/svg11.dtd">
<svg version="1.1" id="Layer_1" xmlns="http://www.w3.org/2000/svg" xmlns:xlink="http://www.w3.org/1999/xlink" x="0px" y="0px"
	 width="368.7px" height="447.8px" viewBox="0 0 368.7 447.8" enable-background="new 0 0 368.7 447.8" xml:space="preserve">
<path opacity="0.1" fill="#FFFFFF" d="M368.7,0H69c20.2,66.7,82.1,115.3,155.4,115.3c7.7,0,15.2-0.6,22.5-1.6
	c-6.5,21.5-10,44.3-10,67.9c0,92.7,53.7,172.8,131.7,211V0z"/>
<path opacity="0.1" fill="#FFFFFF" d="M368.7,0H183.3c10.8,41.2,48.3,71.6,92.8,71.6c4.5,0,9-0.3,13.3-0.9
	c-3.8,12.7-5.9,26.2-5.9,40.2c0,57.7,35.2,107.1,85.2,128V0z"/>
<path opacity="0.1" fill="#FFFFFF" d="M368.7,0H246.4c2.3,30.2,27.5,54,58.3,54c2.8,0,5.5-0.2,8.1-0.6c-2.3,7.7-3.6,16-3.6,24.5
	c0,38,25,70.1,59.5,80.8V0z"/>
<rect x="37.6" y="100.2" transform="matrix(0.7071 0.7071 -0.7071 0.7071 90.5974 4.6972)" opacity="0.2" fill="#FFFFFF" width="4" height="23.1"/>
<rect x="62.6" y="170.9" transform="matrix(0.7071 0.7071 -0.7071 0.7071 156.5806 11.3308)" opacity="0.2" fill="#FFFFFF" width="4" height="47.6"/>
<rect x="69.1" y="128.3" transform="matrix(0.7071 0.7071 -0.7071 0.7071 130.0562 -5.0088)" opacity="0.2" fill="#FFFFFF" width="4" height="52.4"/>
<rect x="116.4" y="169.3" transform="matrix(0.7071 0.7071 -0.7071 0.7071 185.1881 -21.3427)" opacity="0.6" fill="#FFFFFF" width="4" height="87.1"/>
<rect x="174.1" y="220.5" transform="matrix(0.7071 0.7071 -0.7071 0.7071 220.484 -54.5647)" opacity="0.2" fill="#FFFFFF" width="4" height="36.7"/>
<rect x="247.8" y="267" transform="matrix(0.7071 0.7071 -0.7071 0.7071 274.8974 -93.0828)" opacity="0.2" fill="#FFFFFF" width="4" height="36.7"/>
<rect x="135.4" y="73.1" transform="matrix(0.7071 0.7071 -0.7071 0.7071 107.9863 -69.1207)" opacity="0.6" fill="#FFFFFF" width="4" height="45.4"/>
<rect x="194.3" y="111" transform="matrix(0.7071 0.7071 -0.7071 0.7071 150.2004 -100.4366)" opacity="0.2" fill="#FFFFFF" width="4" height="40.2"/>
<rect x="292.3" y="86.9" transform="matrix(0.7071 0.7071 -0.7071 0.7071 169.1208 -173.7154)" opacity="0.2" fill="#FFFFFF" width="4" height="60.8"/>
<rect x="200.3" y="49.9" transform="matrix(0.7071 0.7071 -0.7071 0.7071 106.2667 -123.5634)" opacity="0.2" fill="#FFFFFF" width="4" height="33.2"/>
<rect x="147.2" y="10.4" transform="matrix(0.7071 0.7071 -0.7071 0.7071 62.808 -97.554)" opacity="0.2" fill="#FFFFFF" width="4" height="33.2"/>
<rect x="301.1" y="30.6" transform="matrix(0.7071 0.7071 -0.7071 0.7071 130.1386 -197.1948)" opacity="0.2" fill="#FFFFFF" width="4" height="55.8"/>
<rect x="247.8" y="108.6" transform="matrix(0.7071 0.7071 -0.7071 0.7071 165.8619 -138.2468)" opacity="0.6" fill="#FFFFFF" width="4" height="45"/>
<rect x="313.2" y="128.2" transform="matrix(0.7071 0.7071 -0.7071 0.7071 208.5426 -174.7129)" opacity="0.2" fill="#FFFFFF" width="4" height="72.4"/>
<rect x="261.9" y="135.1" transform="matrix(0.7071 0.7071 -0.7071 0.7071 211.6198 -130.9636)" opacity="0.6" fill="#FFFFFF" width="4" height="109.8"/>
<path opacity="0.1" fill="#FFFFFF" d="M368.7,0h-83.3c3.2,20.2,20.6,35.6,41.7,35.6c2,0,3.9-0.1,5.9-0.4c-1.7,5.6-2.6,11.5-2.6,17.7
	c0,25.7,15.9,47.6,38.3,56.7V0z"/>
</svg>
