<?xml version="1.0" encoding="utf-8"?>
<!-- Generator: Adobe Illustrator 18.0.0, SVG Export Plug-In . SVG Version: 6.00 Build 0)  -->
<!DOCTYPE svg PUBLIC "-//W3C//DTD SVG 1.1//EN" "http://www.w3.org/Graphics/SVG/1.1/DTD/svg11.dtd">
<svg version="1.1" id="Layer_1" xmlns="http://www.w3.org/2000/svg" xmlns:xlink="http://www.w3.org/1999/xlink" x="0px" y="0px"
	 width="32px" height="32px" viewBox="0 0 32 32" enable-background="new 0 0 32 32" xml:space="preserve">
<path fill="#777777" d="M31,3H1C0.4,3,0,3.4,0,4v0c0,0.6,0.4,1,1,1h30c0.6,0,1-0.4,1-1v0C32,3.4,31.6,3,31,3z"/>
<path fill="#777777" d="M23,14H1c-0.6,0-1,0.4-1,1v0c0,0.6,0.4,1,1,1h22c0.6,0,1-0.4,1-1v0C24,14.4,23.6,14,23,14z"/>
<path fill="#777777" d="M31,25H1c-0.6,0-1,0.4-1,1v0c0,0.6,0.4,1,1,1h30c0.6,0,1-0.4,1-1v0C32,25.4,31.6,25,31,25z"/>
<line display="none" fill="none" stroke="#777777" stroke-linecap="round" stroke-miterlimit="10" x1="39.8" y1="10.2" x2="53.6" y2="10.2"/>
<line display="none" fill="none" stroke="#777777" stroke-linecap="round" stroke-miterlimit="10" x1="39.8" y1="15.2" x2="49.6" y2="15.2"/>
<line display="none" fill="none" stroke="#777777" stroke-linecap="round" stroke-miterlimit="10" x1="39.8" y1="20.2" x2="53.6" y2="20.2"/>
</svg>
